<svg width="32" height="33" viewBox="0 0 32 33" fill="none" xmlns="http://www.w3.org/2000/svg">
<path d="M4 15.0547C4 10.0267 4 7.51206 5.56267 5.95073C7.12533 4.38939 9.63867 4.38806 14.6667 4.38806H17.3333C22.3613 4.38806 24.876 4.38806 26.4373 5.95073C27.9987 7.51339 28 10.0267 28 15.0547V17.7214C28 22.7494 28 25.2641 26.4373 26.8254C24.8747 28.3867 22.3613 28.3881 17.3333 28.3881H14.6667C9.63867 28.3881 7.124 28.3881 5.56267 26.8254C4.00133 25.2627 4 22.7494 4 17.7214V15.0547Z" stroke="#333333" stroke-width="2.66667"/>
<path d="M22 12.3881C23.1046 12.3881 24 11.4926 24 10.3881C24 9.28349 23.1046 8.38806 22 8.38806C20.8954 8.38806 20 9.28349 20 10.3881C20 11.4926 20.8954 12.3881 22 12.3881Z" fill="#333333"/>
<path d="M16 20.3881C18.2091 20.3881 20 18.5972 20 16.3881C20 14.1789 18.2091 12.3881 16 12.3881C13.7909 12.3881 12 14.1789 12 16.3881C12 18.5972 13.7909 20.3881 16 20.3881Z" stroke="#333333" stroke-width="2.66667"/>
</svg>
