<svg width="68" height="25" viewBox="0 0 68 25" fill="none" xmlns="http://www.w3.org/2000/svg">
<path d="M3.97461 20.3881C3.30404 20.3881 2.79297 20.3034 2.44141 20.1342C2.09635 19.9649 1.86198 19.6882 1.73828 19.3041C1.62109 18.92 1.5625 18.4089 1.5625 17.7709V9.00134C1.5625 8.3503 1.62109 7.83598 1.73828 7.45837C1.86198 7.07426 2.09635 6.80082 2.44141 6.63806C2.79297 6.46879 3.30404 6.38416 3.97461 6.38416H6.97266C8.3724 6.38416 9.59635 6.59249 10.6445 7.00916C11.6992 7.42582 12.5195 8.1322 13.1055 9.1283C13.6914 10.1179 13.9844 11.4786 13.9844 13.2103C13.9844 14.9421 13.6914 16.3353 13.1055 17.39C12.5195 18.4382 11.6992 19.1999 10.6445 19.6752C9.59635 20.1504 8.3724 20.3881 6.97266 20.3881H3.97461ZM5.83008 8.95251C5.40039 8.95251 5.10742 9.04366 4.95117 9.22595C4.79492 9.40824 4.7168 9.72074 4.7168 10.1635V16.6088C4.7168 17.045 4.79492 17.3575 4.95117 17.5463C5.10742 17.7351 5.40039 17.8295 5.83008 17.8295H6.2793C7.67253 17.8295 8.75 17.4877 9.51172 16.8041C10.2799 16.1205 10.6641 14.9356 10.6641 13.2494C10.6641 12.1231 10.4883 11.2507 10.1367 10.6322C9.79167 10.0072 9.29036 9.571 8.63281 9.32361C7.97526 9.07621 7.18424 8.95251 6.25977 8.95251H5.83008ZM20.9766 20.6322C19.3359 20.6322 18.0371 20.196 17.0801 19.3236C16.123 18.4512 15.6445 17.1524 15.6445 15.4271C15.6445 13.6563 16.1393 12.3347 17.1289 11.4623C18.125 10.5834 19.4531 10.1439 21.1133 10.1439C22.7148 10.1439 23.9974 10.5769 24.9609 11.4427C25.9245 12.3021 26.4062 13.5717 26.4062 15.2513C26.4062 17.0026 25.9245 18.3373 24.9609 19.2552C23.9974 20.1732 22.6693 20.6322 20.9766 20.6322ZM21.0742 18.2689C21.7904 18.2689 22.3307 18.0476 22.6953 17.6049C23.0599 17.1556 23.2422 16.3907 23.2422 15.3099C23.2422 14.2813 23.0566 13.5586 22.6855 13.142C22.321 12.7188 21.7773 12.5072 21.0547 12.5072C20.3581 12.5072 19.8079 12.7351 19.4043 13.1908C19.0072 13.64 18.8086 14.3724 18.8086 15.3881C18.8086 16.4493 18.9974 17.1947 19.375 17.6244C19.7591 18.0541 20.3255 18.2689 21.0742 18.2689ZM33.3008 20.6322C31.6602 20.6322 30.3613 20.196 29.4043 19.3236C28.4473 18.4512 27.9688 17.1524 27.9688 15.4271C27.9688 13.6563 28.4635 12.3347 29.4531 11.4623C30.4492 10.5834 31.7773 10.1439 33.4375 10.1439C35.0391 10.1439 36.3216 10.5769 37.2852 11.4427C38.2487 12.3021 38.7305 13.5717 38.7305 15.2513C38.7305 17.0026 38.2487 18.3373 37.2852 19.2552C36.3216 20.1732 34.9935 20.6322 33.3008 20.6322ZM33.3984 18.2689C34.1146 18.2689 34.6549 18.0476 35.0195 17.6049C35.3841 17.1556 35.5664 16.3907 35.5664 15.3099C35.5664 14.2813 35.3809 13.5586 35.0098 13.142C34.6452 12.7188 34.1016 12.5072 33.3789 12.5072C32.6823 12.5072 32.1322 12.7351 31.7285 13.1908C31.3314 13.64 31.1328 14.3724 31.1328 15.3881C31.1328 16.4493 31.3216 17.1947 31.6992 17.6244C32.0833 18.0541 32.6497 18.2689 33.3984 18.2689ZM42.1094 20.5931C41.9727 20.6517 41.875 20.681 41.8164 20.681C41.7578 20.681 41.696 20.6582 41.6309 20.6127C41.4811 20.5085 41.3086 20.2546 41.1133 19.851C40.9245 19.4408 40.8301 18.8125 40.8301 17.9662V6.65759C40.8301 6.50134 40.8626 6.3809 40.9277 6.29626C41.2012 5.93819 41.6016 5.55082 42.1289 5.13416C42.2201 5.06905 42.3014 5.0365 42.373 5.0365C42.4577 5.0365 42.5391 5.06905 42.6172 5.13416C42.8971 5.349 43.1315 5.55082 43.3203 5.73962C43.5156 5.92843 43.6816 6.11397 43.8184 6.29626C43.8835 6.3809 43.916 6.50134 43.916 6.65759V17.3705C43.916 17.8002 43.9518 18.168 44.0234 18.474C44.0951 18.7735 44.1797 19.0144 44.2773 19.1967C44.388 19.4115 44.3457 19.5645 44.1504 19.6556L42.1094 20.5931ZM51.4941 20.6322C50.3939 20.6322 49.4368 20.4564 48.623 20.1049C47.8092 19.7468 47.1777 19.1934 46.7285 18.4447C46.2793 17.696 46.0547 16.7292 46.0547 15.5443C46.0547 13.767 46.5104 12.4226 47.4219 11.5111C48.3333 10.5997 49.5443 10.1439 51.0547 10.1439C52.0378 10.1439 52.8678 10.3197 53.5449 10.6713C54.2285 11.0228 54.7461 11.5079 55.0977 12.1263C55.4557 12.7448 55.6348 13.4512 55.6348 14.2455C55.6348 15.0202 55.4362 15.5606 55.0391 15.8666C54.6419 16.1726 54.0625 16.3256 53.3008 16.3256H49.1113C49.1634 16.9961 49.4076 17.5072 49.8438 17.8588C50.2865 18.2103 50.8854 18.3861 51.6406 18.3861C52.2396 18.3861 52.7181 18.2982 53.0762 18.1224C53.4408 17.9401 53.6947 17.7969 53.8379 17.6927C53.9616 17.6016 54.1016 17.5593 54.2578 17.5658C54.3815 17.5658 54.5573 17.5918 54.7852 17.6439C55.0195 17.6895 55.2507 17.7774 55.4785 17.9076C55.6413 17.9922 55.7227 18.1094 55.7227 18.2592C55.7227 18.3438 55.7064 18.4642 55.6738 18.6205C55.6543 18.7116 55.6217 18.8451 55.5762 19.0209C55.5306 19.1901 55.472 19.3497 55.4004 19.4994C55.3613 19.571 55.2995 19.6394 55.2148 19.7045C55.0846 19.7956 54.873 19.9161 54.5801 20.0658C54.2936 20.2155 53.8997 20.3457 53.3984 20.4564C52.8971 20.5736 52.2624 20.6322 51.4941 20.6322ZM49.0918 14.3236H52.2754C52.6074 14.3236 52.7734 14.1706 52.7734 13.8646C52.7734 13.4024 52.627 13.015 52.334 12.7025C52.0475 12.3835 51.6146 12.224 51.0352 12.224C50.4036 12.224 49.9382 12.4258 49.6387 12.8295C49.3457 13.2331 49.1634 13.7312 49.0918 14.3236ZM62.6855 20.6322C61.5853 20.6322 60.6283 20.4564 59.8145 20.1049C59.0007 19.7468 58.3691 19.1934 57.9199 18.4447C57.4707 17.696 57.2461 16.7292 57.2461 15.5443C57.2461 13.767 57.7018 12.4226 58.6133 11.5111C59.5247 10.5997 60.7357 10.1439 62.2461 10.1439C63.2292 10.1439 64.0592 10.3197 64.7363 10.6713C65.4199 11.0228 65.9375 11.5079 66.2891 12.1263C66.6471 12.7448 66.8262 13.4512 66.8262 14.2455C66.8262 15.0202 66.6276 15.5606 66.2305 15.8666C65.8333 16.1726 65.2539 16.3256 64.4922 16.3256H60.3027C60.3548 16.9961 60.599 17.5072 61.0352 17.8588C61.4779 18.2103 62.0768 18.3861 62.832 18.3861C63.431 18.3861 63.9095 18.2982 64.2676 18.1224C64.6322 17.9401 64.8861 17.7969 65.0293 17.6927C65.153 17.6016 65.293 17.5593 65.4492 17.5658C65.5729 17.5658 65.7487 17.5918 65.9766 17.6439C66.2109 17.6895 66.4421 17.7774 66.6699 17.9076C66.8327 17.9922 66.9141 18.1094 66.9141 18.2592C66.9141 18.3438 66.8978 18.4642 66.8652 18.6205C66.8457 18.7116 66.8132 18.8451 66.7676 19.0209C66.722 19.1901 66.6634 19.3497 66.5918 19.4994C66.5527 19.571 66.4909 19.6394 66.4062 19.7045C66.276 19.7956 66.0645 19.9161 65.7715 20.0658C65.485 20.2155 65.0911 20.3457 64.5898 20.4564C64.0885 20.5736 63.4538 20.6322 62.6855 20.6322ZM60.2832 14.3236H63.4668C63.7988 14.3236 63.9648 14.1706 63.9648 13.8646C63.9648 13.4024 63.8184 13.015 63.5254 12.7025C63.2389 12.3835 62.806 12.224 62.2266 12.224C61.5951 12.224 61.1296 12.4258 60.8301 12.8295C60.5371 13.2331 60.3548 13.7312 60.2832 14.3236Z" fill="#808080"/>
</svg>
