<svg width="82" height="24" viewBox="0 0 82 24" fill="none" xmlns="http://www.w3.org/2000/svg">
<path d="M4.76953 21C3.96484 21 3.35156 20.8984 2.92969 20.6953C2.51562 20.4922 2.23438 20.1602 2.08594 19.6992C1.94531 19.2383 1.875 18.625 1.875 17.8594V7.33594C1.875 6.55469 1.94531 5.9375 2.08594 5.48438C2.23438 5.02344 2.51562 4.69531 2.92969 4.5C3.35156 4.29688 3.96484 4.19531 4.76953 4.19531H8.36719C10.0469 4.19531 11.5156 4.44531 12.7734 4.94531C14.0391 5.44531 15.0234 6.29297 15.7266 7.48828C16.4297 8.67578 16.7812 10.3086 16.7812 12.3867C16.7812 14.4648 16.4297 16.1367 15.7266 17.4023C15.0234 18.6602 14.0391 19.5742 12.7734 20.1445C11.5156 20.7148 10.0469 21 8.36719 21H4.76953ZM6.99609 7.27734C6.48047 7.27734 6.12891 7.38672 5.94141 7.60547C5.75391 7.82422 5.66016 8.19922 5.66016 8.73047V16.4648C5.66016 16.9883 5.75391 17.3633 5.94141 17.5898C6.12891 17.8164 6.48047 17.9297 6.99609 17.9297H7.53516C9.20703 17.9297 10.5 17.5195 11.4141 16.6992C12.3359 15.8789 12.7969 14.457 12.7969 12.4336C12.7969 11.082 12.5859 10.0352 12.1641 9.29297C11.75 8.54297 11.1484 8.01953 10.3594 7.72266C9.57031 7.42578 8.62109 7.27734 7.51172 7.27734H6.99609ZM25.1719 21.293C23.2031 21.293 21.6445 20.7695 20.4961 19.7227C19.3477 18.6758 18.7734 17.1172 18.7734 15.0469C18.7734 12.9219 19.3672 11.3359 20.5547 10.2891C21.75 9.23438 23.3438 8.70703 25.3359 8.70703C27.2578 8.70703 28.7969 9.22656 29.9531 10.2656C31.1094 11.2969 31.6875 12.8203 31.6875 14.8359C31.6875 16.9375 31.1094 18.5391 29.9531 19.6406C28.7969 20.7422 27.2031 21.293 25.1719 21.293ZM25.2891 18.457C26.1484 18.457 26.7969 18.1914 27.2344 17.6602C27.6719 17.1211 27.8906 16.2031 27.8906 14.9062C27.8906 13.6719 27.668 12.8047 27.2227 12.3047C26.7852 11.7969 26.1328 11.543 25.2656 11.543C24.4297 11.543 23.7695 11.8164 23.2852 12.3633C22.8086 12.9023 22.5703 13.7812 22.5703 15C22.5703 16.2734 22.7969 17.168 23.25 17.6836C23.7109 18.1992 24.3906 18.457 25.2891 18.457ZM39.9609 21.293C37.9922 21.293 36.4336 20.7695 35.2852 19.7227C34.1367 18.6758 33.5625 17.1172 33.5625 15.0469C33.5625 12.9219 34.1562 11.3359 35.3438 10.2891C36.5391 9.23438 38.1328 8.70703 40.125 8.70703C42.0469 8.70703 43.5859 9.22656 44.7422 10.2656C45.8984 11.2969 46.4766 12.8203 46.4766 14.8359C46.4766 16.9375 45.8984 18.5391 44.7422 19.6406C43.5859 20.7422 41.9922 21.293 39.9609 21.293ZM40.0781 18.457C40.9375 18.457 41.5859 18.1914 42.0234 17.6602C42.4609 17.1211 42.6797 16.2031 42.6797 14.9062C42.6797 13.6719 42.457 12.8047 42.0117 12.3047C41.5742 11.7969 40.9219 11.543 40.0547 11.543C39.2188 11.543 38.5586 11.8164 38.0742 12.3633C37.5977 12.9023 37.3594 13.7812 37.3594 15C37.3594 16.2734 37.5859 17.168 38.0391 17.6836C38.5 18.1992 39.1797 18.457 40.0781 18.457Z" fill="#468A99"/>
<path d="M50.5312 21.2461C50.3672 21.3164 50.25 21.3516 50.1797 21.3516C50.1094 21.3516 50.0352 21.3242 49.957 21.2695C49.7773 21.1445 49.5703 20.8398 49.3359 20.3555C49.1094 19.8633 48.9961 19.1094 48.9961 18.0938V4.52344C48.9961 4.33594 49.0352 4.19141 49.1133 4.08984C49.4414 3.66016 49.9219 3.19531 50.5547 2.69531C50.6641 2.61719 50.7617 2.57812 50.8477 2.57812C50.9492 2.57812 51.0469 2.61719 51.1406 2.69531C51.4766 2.95312 51.7578 3.19531 51.9844 3.42188C52.2188 3.64844 52.418 3.87109 52.582 4.08984C52.6602 4.19141 52.6992 4.33594 52.6992 4.52344V17.3789C52.6992 17.8945 52.7422 18.3359 52.8281 18.7031C52.9141 19.0625 53.0156 19.3516 53.1328 19.5703C53.2656 19.8281 53.2148 20.0117 52.9805 20.1211L50.5312 21.2461ZM61.793 21.293C60.4727 21.293 59.3242 21.082 58.3477 20.6602C57.3711 20.2305 56.6133 19.5664 56.0742 18.668C55.5352 17.7695 55.2656 16.6094 55.2656 15.1875C55.2656 13.0547 55.8125 11.4414 56.9062 10.3477C58 9.25391 59.4531 8.70703 61.2656 8.70703C62.4453 8.70703 63.4414 8.91797 64.2539 9.33984C65.0742 9.76172 65.6953 10.3438 66.1172 11.0859C66.5469 11.8281 66.7617 12.6758 66.7617 13.6289C66.7617 14.5586 66.5234 15.207 66.0469 15.5742C65.5703 15.9414 64.875 16.125 63.9609 16.125H58.9336C58.9961 16.9297 59.2891 17.543 59.8125 17.9648C60.3438 18.3867 61.0625 18.5977 61.9688 18.5977C62.6875 18.5977 63.2617 18.4922 63.6914 18.2812C64.1289 18.0625 64.4336 17.8906 64.6055 17.7656C64.7539 17.6562 64.9219 17.6055 65.1094 17.6133C65.2578 17.6133 65.4688 17.6445 65.7422 17.707C66.0234 17.7617 66.3008 17.8672 66.5742 18.0234C66.7695 18.125 66.8672 18.2656 66.8672 18.4453C66.8672 18.5469 66.8477 18.6914 66.8086 18.8789C66.7852 18.9883 66.7461 19.1484 66.6914 19.3594C66.6367 19.5625 66.5664 19.7539 66.4805 19.9336C66.4336 20.0195 66.3594 20.1016 66.2578 20.1797C66.1016 20.2891 65.8477 20.4336 65.4961 20.6133C65.1523 20.793 64.6797 20.9492 64.0781 21.082C63.4766 21.2227 62.7148 21.293 61.793 21.293ZM58.9102 13.7227H62.7305C63.1289 13.7227 63.3281 13.5391 63.3281 13.1719C63.3281 12.6172 63.1523 12.1523 62.8008 11.7773C62.457 11.3945 61.9375 11.2031 61.2422 11.2031C60.4844 11.2031 59.9258 11.4453 59.5664 11.9297C59.2148 12.4141 58.9961 13.0117 58.9102 13.7227ZM75.2227 21.293C73.9023 21.293 72.7539 21.082 71.7773 20.6602C70.8008 20.2305 70.043 19.5664 69.5039 18.668C68.9648 17.7695 68.6953 16.6094 68.6953 15.1875C68.6953 13.0547 69.2422 11.4414 70.3359 10.3477C71.4297 9.25391 72.8828 8.70703 74.6953 8.70703C75.875 8.70703 76.8711 8.91797 77.6836 9.33984C78.5039 9.76172 79.125 10.3438 79.5469 11.0859C79.9766 11.8281 80.1914 12.6758 80.1914 13.6289C80.1914 14.5586 79.9531 15.207 79.4766 15.5742C79 15.9414 78.3047 16.125 77.3906 16.125H72.3633C72.4258 16.9297 72.7188 17.543 73.2422 17.9648C73.7734 18.3867 74.4922 18.5977 75.3984 18.5977C76.1172 18.5977 76.6914 18.4922 77.1211 18.2812C77.5586 18.0625 77.8633 17.8906 78.0352 17.7656C78.1836 17.6562 78.3516 17.6055 78.5391 17.6133C78.6875 17.6133 78.8984 17.6445 79.1719 17.707C79.4531 17.7617 79.7305 17.8672 80.0039 18.0234C80.1992 18.125 80.2969 18.2656 80.2969 18.4453C80.2969 18.5469 80.2773 18.6914 80.2383 18.8789C80.2148 18.9883 80.1758 19.1484 80.1211 19.3594C80.0664 19.5625 79.9961 19.7539 79.9102 19.9336C79.8633 20.0195 79.7891 20.1016 79.6875 20.1797C79.5312 20.2891 79.2773 20.4336 78.9258 20.6133C78.582 20.793 78.1094 20.9492 77.5078 21.082C76.9062 21.2227 76.1445 21.293 75.2227 21.293ZM72.3398 13.7227H76.1602C76.5586 13.7227 76.7578 13.5391 76.7578 13.1719C76.7578 12.6172 76.582 12.1523 76.2305 11.7773C75.8867 11.3945 75.3672 11.2031 74.6719 11.2031C73.9141 11.2031 73.3555 11.4453 72.9961 11.9297C72.6445 12.4141 72.4258 13.0117 72.3398 13.7227Z" fill="#E49B6E"/>
</svg>
